<svg width="160" height="48" viewBox="0 0 160 48" fill="none" xmlns="http://www.w3.org/2000/svg">
  <defs>
    <linearGradient id="penovtra-gradient" x1="0" y1="0" x2="160" y2="48" gradientUnits="userSpaceOnUse">
      <stop offset="0%" stop-color="#0EA45A"/>
      <stop offset="50%" stop-color="#32C97C"/>
      <stop offset="100%" stop-color="#F6C443"/>
    </linearGradient>
  </defs>
  <rect x="4" y="6" width="36" height="36" rx="12" fill="url(#penovtra-gradient)" opacity="0.92"/>
  <path d="M20 15C24 19 25.5 23.5 23.5 29C22.2 32.6 19.2 36 15 38C23 38.5 28 32.5 29.5 28C31.5 22 29 17 20 15Z" fill="white" opacity="0.85"/>
  <path d="M18 29C21.5 28 24 24.5 24 21C24 19.2 23.5 17.7 22.7 16.4C18 18 15 22.8 15 27.5C15 31 16.5 33.5 18 35C16.5 33 16.5 30 18 29Z" fill="#E6F8EE"/>
  <g font-family="'Poppins', 'Inter', sans-serif" font-weight="700" font-size="24" letter-spacing="0.08em">
    <text x="56" y="28" fill="#0E2F1B">PE</text>
    <text x="92" y="28" fill="#0E2F1B">NOVTRA</text>
  </g>
  <rect x="56" y="32" width="82" height="6" rx="3" fill="url(#penovtra-gradient)" opacity="0.6"/>
</svg>
